# xmcd
#
# Track frame offsets: 
#        150
#        17247
#        34644
#        51123
#        66535
#        82470
#        100014
#        117218
#        133666
#        153031
#
# Disc length: 2267 seconds
#
# Revision: 0
# Processed by: cddbd v1.5.2PL0 Copyright (c) Steve Scherf et al.
# Submitted via: ExactAudioCopy v0.99pb5
#
DISCID=8308d90a
DTITLE=Saseline - Restart
DYEAR=2010
DGENRE=Pop
TTITLE0=Restart
TTITLE1=Love Is Free
TTITLE2=Playin' Trixx
TTITLE3=Best Friend
TTITLE4=No Turning Back
TTITLE5=One Million Kisses
TTITLE6=I Hate To Say It
TTITLE7=Questionize
TTITLE8=Perfect Faith
TTITLE9=Do It Again
EXTD=
EXTT0=
EXTT1=
EXTT2=
EXTT3=
EXTT4=
EXTT5=
EXTT6=
EXTT7=
EXTT8=
EXTT9=
PLAYORDER=
